# xmcd CD database file
#
# Track frame offsets:
#	150
#	18078
#	37237
#	56625
#	80400
#	98587
#	122944
#	143175
#	159712
#	179887
#
# Disc length: 2639 seconds
#
# Revision: 0
# Processed by: cddbd v1.5.2PL0 Copyright (c) Steve Scherf et al.
# Submitted via: jetAudio 7
#
DISCID=8a0a4d0a
DTITLE=玉木宏 - Times...
DYEAR=1900
DGENRE=장르 없음
TTITLE0=SLOW TIME
TTITLE1=パレット
TTITLE2=Last Song
TTITLE3=大切な場所
TTITLE4=君と空
TTITLE5=My Angel
TTITLE6=離さない
TTITLE7=Sunny Bike
TTITLE8=Ocean Blue
TTITLE9=Air's call
EXTD=
EXTT0=
EXTT1=
EXTT2=
EXTT3=
EXTT4=
EXTT5=
EXTT6=
EXTT7=
EXTT8=
EXTT9=
PLAYORDER=
